<svg width="31" height="18" viewBox="0 0 31 18" fill="none" xmlns="http://www.w3.org/2000/svg">
<path d="M18 9C18 9.26522 17.8946 9.51957 17.7071 9.70711C17.5196 9.89464 17.2652 10 17 10H14.5V12.5C14.5 12.7652 14.3946 13.0196 14.2071 13.2071C14.0196 13.3946 13.7652 13.5 13.5 13.5C13.2348 13.5 12.9804 13.3946 12.7929 13.2071C12.6054 13.0196 12.5 12.7652 12.5 12.5V10H10C9.73478 10 9.48043 9.89464 9.29289 9.70711C9.10536 9.51957 9 9.26522 9 9C9 8.73478 9.10536 8.48043 9.29289 8.29289C9.48043 8.10536 9.73478 8 10 8H12.5V5.5C12.5 5.23478 12.6054 4.98043 12.7929 4.79289C12.9804 4.60536 13.2348 4.5 13.5 4.5C13.7652 4.5 14.0196 4.60536 14.2071 4.79289C14.3946 4.98043 14.5 5.23478 14.5 5.5V8H17C17.2652 8 17.5196 8.10536 17.7071 8.29289C17.8946 8.48043 18 8.73478 18 9ZM27 3V15C27 15.7956 26.6839 16.5587 26.1213 17.1213C25.5587 17.6839 24.7956 18 24 18H3C2.20435 18 1.44129 17.6839 0.87868 17.1213C0.31607 16.5587 0 15.7956 0 15V3C0 2.20435 0.31607 1.44129 0.87868 0.87868C1.44129 0.316071 2.20435 0 3 0H24C24.7956 0 25.5587 0.316071 26.1213 0.87868C26.6839 1.44129 27 2.20435 27 3ZM25 3C25 2.73478 24.8946 2.48043 24.7071 2.29289C24.5196 2.10536 24.2652 2 24 2H3C2.73478 2 2.48043 2.10536 2.29289 2.29289C2.10536 2.48043 2 2.73478 2 3V15C2 15.2652 2.10536 15.5196 2.29289 15.7071C2.48043 15.8946 2.73478 16 3 16H24C24.2652 16 24.5196 15.8946 24.7071 15.7071C24.8946 15.5196 25 15.2652 25 15V3ZM30 4C29.7348 4 29.4804 4.10536 29.2929 4.29289C29.1054 4.48043 29 4.73478 29 5V13C29 13.2652 29.1054 13.5196 29.2929 13.7071C29.4804 13.8946 29.7348 14 30 14C30.2652 14 30.5196 13.8946 30.7071 13.7071C30.8946 13.5196 31 13.2652 31 13V5C31 4.73478 30.8946 4.48043 30.7071 4.29289C30.5196 4.10536 30.2652 4 30 4Z" fill="#A855F7"/>
</svg>
