<svg width="28" height="21" viewBox="0 0 28 21" fill="none" xmlns="http://www.w3.org/2000/svg">
<path d="M26 0.5H2C1.46957 0.5 0.960859 0.710714 0.585786 1.08579C0.210714 1.46086 0 1.96957 0 2.5V5.5C0 6.03043 0.210714 6.53914 0.585786 6.91421C0.960859 7.28929 1.46957 7.5 2 7.5V18.5C2 19.0304 2.21071 19.5391 2.58579 19.9142C2.96086 20.2893 3.46957 20.5 4 20.5H24C24.5304 20.5 25.0391 20.2893 25.4142 19.9142C25.7893 19.5391 26 19.0304 26 18.5V7.5C26.5304 7.5 27.0391 7.28929 27.4142 6.91421C27.7893 6.53914 28 6.03043 28 5.5V2.5C28 1.96957 27.7893 1.46086 27.4142 1.08579C27.0391 0.710714 26.5304 0.5 26 0.5ZM24 18.5H4V7.5H24V18.5ZM26 5.5H2V2.5H26V5.5ZM10 11.5C10 11.2348 10.1054 10.9804 10.2929 10.7929C10.4804 10.6054 10.7348 10.5 11 10.5H17C17.2652 10.5 17.5196 10.6054 17.7071 10.7929C17.8946 10.9804 18 11.2348 18 11.5C18 11.7652 17.8946 12.0196 17.7071 12.2071C17.5196 12.3946 17.2652 12.5 17 12.5H11C10.7348 12.5 10.4804 12.3946 10.2929 12.2071C10.1054 12.0196 10 11.7652 10 11.5Z" fill="#A855F7"/>
</svg>