<svg width="26" height="26" viewBox="0 0 26 26" fill="none" xmlns="http://www.w3.org/2000/svg">
<path d="M13.0041 3.09594e-07C10.7595 -0.000489452 8.55293 0.58011 6.59929 1.68529C4.64564 2.79046 3.01144 4.38256 1.85573 6.30662C0.700026 8.23069 0.0621955 10.4212 0.00432285 12.6648C-0.0535498 14.9085 0.470507 17.1289 1.52548 19.11L0.106598 23.3662C-0.0109327 23.7186 -0.0279892 24.0968 0.0573403 24.4583C0.14267 24.8199 0.327013 25.1505 0.589708 25.4132C0.852404 25.6759 1.18307 25.8602 1.54464 25.9455C1.90622 26.0308 2.28441 26.0138 2.63684 25.8962L6.8935 24.4775C8.63713 25.4048 10.5691 25.9228 12.5428 25.992C14.5165 26.0613 16.4801 25.68 18.2844 24.8772C20.0888 24.0743 21.6865 22.871 22.9563 21.3586C24.2261 19.8462 25.1347 18.0644 25.613 16.1484C26.0913 14.2325 26.1267 12.2328 25.7167 10.301C25.3067 8.36934 24.462 6.55642 23.2466 4.9999C22.0313 3.44337 20.4772 2.18415 18.7025 1.31782C16.9278 0.451486 14.979 0.000810288 13.0041 3.09594e-07ZM13.0041 24C11.0701 24.0013 9.17009 23.4921 7.49606 22.5238C7.37349 22.4527 7.23722 22.4085 7.09627 22.394C6.95532 22.3796 6.81291 22.3953 6.67848 22.44L2.00303 24L3.56193 19.325C3.60687 19.1907 3.62275 19.0483 3.60852 18.9074C3.5943 18.7665 3.55029 18.6301 3.47942 18.5075C2.26677 16.4111 1.77989 13.9732 2.09432 11.572C2.40876 9.17068 3.50692 6.94027 5.21845 5.22674C6.92998 3.51321 9.15921 2.41234 11.5603 2.0949C13.9614 1.77747 16.4002 2.26122 18.4983 3.47111C20.5964 4.68099 22.2365 6.54939 23.1643 8.78644C24.092 11.0235 24.2555 13.5042 23.6294 15.8436C23.0033 18.1831 21.6226 20.2505 19.7014 21.7253C17.7803 23.2 15.4261 23.9996 13.0041 24Z" fill="#A855F7"/>
</svg>
