<svg width="27" height="23" viewBox="0 0 27 23" fill="none" xmlns="http://www.w3.org/2000/svg">
<g clip-path="url(#clip0_143_6423)">
<path d="M23.6665 3H20.2015L18.4978 0.445C18.4065 0.30819 18.2829 0.196004 18.1379 0.118382C17.9929 0.0407602 17.831 9.87561e-05 17.6665 0H9.6665C9.50204 9.87561e-05 9.34014 0.0407602 9.19514 0.118382C9.05015 0.196004 8.92653 0.30819 8.83525 0.445L7.13025 3H3.6665C2.87085 3 2.10779 3.31607 1.54518 3.87868C0.982575 4.44129 0.666504 5.20435 0.666504 6V20C0.666504 20.7956 0.982575 21.5587 1.54518 22.1213C2.10779 22.6839 2.87085 23 3.6665 23H23.6665C24.4622 23 25.2252 22.6839 25.7878 22.1213C26.3504 21.5587 26.6665 20.7956 26.6665 20V6C26.6665 5.20435 26.3504 4.44129 25.7878 3.87868C25.2252 3.31607 24.4622 3 23.6665 3ZM24.6665 20C24.6665 20.2652 24.5611 20.5196 24.3736 20.7071C24.1861 20.8946 23.9317 21 23.6665 21H3.6665C3.40129 21 3.14693 20.8946 2.9594 20.7071C2.77186 20.5196 2.6665 20.2652 2.6665 20V6C2.6665 5.73478 2.77186 5.48043 2.9594 5.29289C3.14693 5.10536 3.40129 5 3.6665 5H7.6665C7.83118 5.00011 7.99334 4.95954 8.13857 4.88191C8.2838 4.80428 8.40761 4.69199 8.499 4.555L10.2015 2H17.1303L18.834 4.555C18.9254 4.69199 19.0492 4.80428 19.1944 4.88191C19.3397 4.95954 19.5018 5.00011 19.6665 5H23.6665C23.9317 5 24.1861 5.10536 24.3736 5.29289C24.5611 5.48043 24.6665 5.73478 24.6665 6V20ZM13.6665 7C12.5787 7 11.5153 7.32257 10.6109 7.92692C9.7064 8.53126 9.00145 9.39025 8.58517 10.3952C8.16888 11.4002 8.05997 12.5061 8.27219 13.573C8.4844 14.6399 9.00823 15.6199 9.77742 16.3891C10.5466 17.1583 11.5266 17.6821 12.5935 17.8943C13.6604 18.1065 14.7663 17.9976 15.7713 17.5813C16.7763 17.1651 17.6352 16.4601 18.2396 15.5556C18.8439 14.6512 19.1665 13.5878 19.1665 12.5C19.1648 11.0418 18.5849 9.64383 17.5538 8.61274C16.5227 7.58165 15.1247 7.00165 13.6665 7ZM13.6665 16C12.9743 16 12.2976 15.7947 11.722 15.4101C11.1464 15.0256 10.6978 14.4789 10.4329 13.8394C10.168 13.1999 10.0987 12.4961 10.2338 11.8172C10.3688 11.1382 10.7021 10.5146 11.1916 10.0251C11.6811 9.53564 12.3048 9.2023 12.9837 9.06725C13.6626 8.9322 14.3664 9.00151 15.0059 9.26642C15.6454 9.53133 16.1921 9.97993 16.5766 10.5555C16.9612 11.1311 17.1665 11.8078 17.1665 12.5C17.1665 13.4283 16.7978 14.3185 16.1414 14.9749C15.485 15.6313 14.5948 16 13.6665 16Z" fill="#A855F7"/>
</g>
<defs>
<clipPath id="clip0_143_6423">
<rect width="26" height="23" fill="white" transform="translate(0.666504)"/>
</clipPath>
</defs>
</svg>
