<svg width="26" height="29" viewBox="0 0 26 29" fill="none" xmlns="http://www.w3.org/2000/svg">
<path d="M16.8325 22.5542L12.8325 28.5544C12.7596 28.6638 12.6659 28.7577 12.5567 28.8308C12.4476 28.9039 12.3251 28.9548 12.1962 28.9806C11.936 29.0326 11.6658 28.9791 11.445 28.8319C11.2242 28.6847 11.0709 28.4559 11.0189 28.1956C10.9668 27.9354 11.0203 27.6652 11.1675 27.4444L15.1675 21.4441C15.3147 21.2233 15.5436 21.0701 15.8038 21.018C16.064 20.966 16.3342 21.0194 16.555 21.1666C16.7758 21.3138 16.9291 21.5427 16.9811 21.8029C17.0332 22.0631 16.9797 22.3334 16.8325 22.5542ZM26 9.49864C25.9974 12.0175 24.9956 14.4324 23.2146 16.2135C21.4336 17.9946 19.0187 18.9964 16.5 18.999H13.535L9.8325 24.5543C9.75962 24.6636 9.66591 24.7575 9.55674 24.8306C9.44757 24.9037 9.32506 24.9546 9.19622 24.9804C9.06738 25.0062 8.93473 25.0063 8.80583 24.9808C8.67694 24.9553 8.55433 24.9047 8.445 24.8318C8.33567 24.7589 8.24178 24.6652 8.16866 24.556C8.09555 24.4468 8.04466 24.3243 8.01889 24.1955C7.99312 24.0666 7.99298 23.934 8.01848 23.8051C8.04398 23.6762 8.09462 23.5536 8.1675 23.4442L11.1313 18.999H6.5C4.77609 18.999 3.12279 18.3142 1.90381 17.0951C0.684819 15.8761 0 14.2227 0 12.4988C0 10.7748 0.684819 9.12142 1.90381 7.90238C3.12279 6.68334 4.77609 5.99849 6.5 5.99849C6.87367 5.99881 7.24666 6.03059 7.615 6.0935C8.41252 4.02187 9.90956 2.2945 11.8467 1.21066C13.7839 0.126815 16.0392 -0.245207 18.2219 0.159046C20.4045 0.563299 22.377 1.71836 23.7975 3.4241C25.2181 5.12984 25.9973 7.27879 26 9.49864ZM24 9.49864C23.992 7.55113 23.2276 5.68293 21.8681 4.28846C20.5087 2.89398 18.6605 2.08236 16.7139 2.02493C14.7673 1.96751 12.8746 2.66877 11.4353 3.98068C9.996 5.29259 9.12278 7.11247 9 9.05612C8.99245 9.18745 8.95911 9.316 8.90188 9.43444C8.84464 9.55288 8.76465 9.65889 8.66645 9.74642C8.46813 9.92318 8.20772 10.0139 7.9425 9.99866C7.67728 9.98341 7.42899 9.86342 7.25223 9.6651C7.07548 9.46677 6.98475 9.20634 7 8.94112C7.0175 8.6361 7.04958 8.33484 7.09625 8.03733C6.89851 8.01195 6.69937 7.999 6.5 7.99858C5.30653 7.99858 4.16193 8.4727 3.31802 9.31665C2.47411 10.1606 2 11.3052 2 12.4988C2 13.6923 2.47411 14.8369 3.31802 15.6809C4.16193 16.5248 5.30653 16.999 6.5 16.999H16.5C18.4884 16.9966 20.3947 16.2057 21.8007 14.7996C23.2068 13.3935 23.9977 11.4871 24 9.49864Z" fill="#A855F7"/>
</svg>
