<svg width="25" height="24" viewBox="0 0 25 24" fill="none" xmlns="http://www.w3.org/2000/svg">
<path d="M16.6141 9.21937C16.6839 9.28903 16.7392 9.37175 16.7769 9.46279C16.8147 9.55384 16.8341 9.65144 16.8341 9.75C16.8341 9.84856 16.8147 9.94616 16.7769 10.0372C16.7392 10.1283 16.6839 10.211 16.6141 10.2806L11.3641 15.5306C11.2945 15.6004 11.2118 15.6557 11.1207 15.6934C11.0297 15.7312 10.9321 15.7506 10.8335 15.7506C10.7349 15.7506 10.6373 15.7312 10.5463 15.6934C10.4552 15.6557 10.3725 15.6004 10.3029 15.5306L8.05288 13.2806C7.91214 13.1399 7.83308 12.949 7.83308 12.75C7.83308 12.551 7.91214 12.3601 8.05288 12.2194C8.19361 12.0786 8.38448 11.9996 8.5835 11.9996C8.78252 11.9996 8.9734 12.0786 9.11413 12.2194L10.8335 13.9397L15.5529 9.21937C15.6225 9.14964 15.7052 9.09432 15.7963 9.05658C15.8873 9.01884 15.9849 8.99941 16.0835 8.99941C16.1821 8.99941 16.2797 9.01884 16.3707 9.05658C16.4618 9.09432 16.5445 9.14964 16.6141 9.21937ZM22.0835 12C22.0835 13.9284 21.5117 15.8134 20.4403 17.4168C19.369 19.0202 17.8462 20.2699 16.0647 21.0078C14.2831 21.7458 12.3227 21.9389 10.4314 21.5627C8.54006 21.1865 6.80277 20.2579 5.43921 18.8943C4.07565 17.5307 3.14705 15.7934 2.77084 13.9021C2.39464 12.0108 2.58772 10.0504 3.32568 8.26884C4.06363 6.48726 5.31331 4.96452 6.91669 3.89317C8.52007 2.82183 10.4051 2.25 12.3335 2.25C14.9185 2.25273 17.3969 3.28084 19.2248 5.10872C21.0527 6.93661 22.0808 9.41498 22.0835 12ZM20.5835 12C20.5835 10.3683 20.0996 8.77325 19.1931 7.41655C18.2866 6.05984 16.9981 5.00242 15.4906 4.37799C13.9831 3.75357 12.3243 3.59019 10.724 3.90852C9.12366 4.22685 7.65365 5.01259 6.49987 6.16637C5.34609 7.32015 4.56035 8.79016 4.24202 10.3905C3.92369 11.9908 4.08707 13.6496 4.71149 15.1571C5.33592 16.6646 6.39334 17.9531 7.75005 18.8596C9.10675 19.7661 10.7018 20.25 12.3335 20.25C14.5208 20.2475 16.6178 19.3775 18.1644 17.8309C19.711 16.2843 20.581 14.1873 20.5835 12Z" fill="#A855F7"/>
</svg>
